<svg width="current" height="current" viewBox="0 0 120 120" fill="none" xmlns="http://www.w3.org/2000/svg">
<path d="M50 60C50 62.6522 51.0536 65.1957 52.9289 67.0711C54.8043 68.9464 57.3478 70 60 70C62.6522 70 65.1957 68.9464 67.0711 67.0711C68.9464 65.1957 70 62.6522 70 60C70 57.3478 68.9464 54.8043 67.0711 52.9289C65.1957 51.0536 62.6522 50 60 50C57.3478 50 54.8043 51.0536 52.9289 52.9289C51.0536 54.8043 50 57.3478 50 60ZM50 30C50 32.6522 51.0536 35.1957 52.9289 37.0711C54.8043 38.9464 57.3478 40 60 40C62.6522 40 65.1957 38.9464 67.0711 37.0711C68.9464 35.1957 70 32.6522 70 30C70 27.3478 68.9464 24.8043 67.0711 22.9289C65.1957 21.0536 62.6522 20 60 20C57.3478 20 54.8043 21.0536 52.9289 22.9289C51.0536 24.8043 50 27.3478 50 30ZM50 90C50 92.6522 51.0536 95.1957 52.9289 97.0711C54.8043 98.9464 57.3478 100 60 100C62.6522 100 65.1957 98.9464 67.0711 97.0711C68.9464 95.1957 70 92.6522 70 90C70 87.3478 68.9464 84.8043 67.0711 82.9289C65.1957 81.0536 62.6522 80 60 80C57.3478 80 54.8043 81.0536 52.9289 82.9289C51.0536 84.8043 50 87.3478 50 90Z" fill="current"/>
</svg>
