<svg width="current" height="current" viewBox="0 0 87 84" fill="none" xmlns="http://www.w3.org/2000/svg">
<path d="M76.125 73.2523L60.3816 58.1031M60.3816 58.1031C63.0746 55.5117 65.2108 52.4353 66.6682 49.0496C68.1256 45.6638 68.8758 42.035 68.8758 38.3703C68.8758 34.7056 68.1256 31.0767 66.6682 27.691C65.2108 24.3052 63.0746 21.2288 60.3816 18.6375C57.6887 16.0461 54.4917 13.9906 50.9731 12.5881C47.4546 11.1857 43.6834 10.4639 39.875 10.4639C36.0666 10.4639 32.2954 11.1857 28.7769 12.5881C25.2584 13.9906 22.0614 16.0461 19.3684 18.6375C13.9297 23.8709 10.8743 30.969 10.8743 38.3703C10.8743 45.7715 13.9297 52.8696 19.3684 58.1031C24.8071 63.3365 32.1835 66.2766 39.875 66.2766C47.5665 66.2766 54.9429 63.3365 60.3816 58.1031Z" stroke="current" strokeWidth="current" strokeLinecap="round" strokeLinejoin="round"/>
</svg>
