<svg width="current" height="current" viewBox="0 0 24 24" fill="none" xmlns="http://www.w3.org/2000/svg">
<path fill-rule="evenodd" clip-rule="evenodd" d="M9.02408 2.783C9.07344 2.56094 9.19704 2.36234 9.37448 2.21999C9.55192 2.07764 9.77259 2.00004 10.0001 2H14.0001C14.2276 2.00004 14.4482 2.07764 14.6257 2.21999C14.8031 2.36234 14.9267 2.56094 14.9761 2.783L15.4161 4.764C15.8161 4.954 16.1971 5.174 16.5561 5.424L18.4941 4.814C18.7111 4.74577 18.9449 4.75356 19.1569 4.8361C19.3688 4.91864 19.5463 5.07099 19.6601 5.268L21.6601 8.732C21.7739 8.92904 21.817 9.159 21.7825 9.3839C21.748 9.6088 21.6378 9.81519 21.4701 9.969L19.9731 11.342C20.0088 11.7799 20.0088 12.2201 19.9731 12.658L21.4701 14.031C21.6378 14.1848 21.748 14.3912 21.7825 14.6161C21.817 14.841 21.7739 15.071 21.6601 15.268L19.6601 18.732C19.5463 18.929 19.3688 19.0814 19.1569 19.1639C18.9449 19.2464 18.7111 19.2542 18.4941 19.186L16.5571 18.576C16.1971 18.826 15.8161 19.046 15.4171 19.236L14.9771 21.216C14.9279 21.4384 14.8042 21.6374 14.6265 21.7799C14.4489 21.9225 14.2279 22.0001 14.0001 22H10.0001C9.77259 22 9.55192 21.9224 9.37448 21.78C9.19704 21.6377 9.07344 21.4391 9.02408 21.217L8.58408 19.236C8.18408 19.046 7.80308 18.826 7.44408 18.576L5.50608 19.186C5.28907 19.2542 5.05528 19.2464 4.8433 19.1639C4.63131 19.0814 4.45381 18.929 4.34008 18.732L2.34008 15.268C2.22629 15.071 2.1831 14.841 2.21765 14.6161C2.25219 14.3912 2.3624 14.1848 2.53008 14.031L4.02708 12.658C3.99137 12.2201 3.99137 11.7799 4.02708 11.342L2.53008 9.97C2.3624 9.81619 2.25219 9.6098 2.21765 9.3849C2.1831 9.16 2.22629 8.93004 2.34008 8.733L4.34008 5.269C4.45381 5.07199 4.63131 4.91964 4.8433 4.8371C5.05528 4.75456 5.28907 4.74677 5.50608 4.815L7.44308 5.425C7.80308 5.175 8.18408 4.955 8.58308 4.765L9.02308 2.785L9.02408 2.783ZM12.0001 15C12.7957 15 13.5588 14.6839 14.1214 14.1213C14.684 13.5587 15.0001 12.7956 15.0001 12C15.0001 11.2044 14.684 10.4413 14.1214 9.87868C13.5588 9.31607 12.7957 9 12.0001 9C11.2044 9 10.4414 9.31607 9.87876 9.87868C9.31615 10.4413 9.00008 11.2044 9.00008 12C9.00008 12.7956 9.31615 13.5587 9.87876 14.1213C10.4414 14.6839 11.2044 15 12.0001 15Z" fill="current"/>
</svg>
