<?xml version="1.0" standalone="no"?>
<!DOCTYPE svg PUBLIC "-//W3C//DTD SVG 20010904//EN"
 "http://www.w3.org/TR/2001/REC-SVG-20010904/DTD/svg10.dtd">
<svg version="1.0" xmlns="http://www.w3.org/2000/svg"
 width="260.000000pt" height="260.000000pt" viewBox="0 0 260.000000 260.000000"
 preserveAspectRatio="xMidYMid meet">
<metadata>
Created by potrace 1.14, written by Peter Selinger 2001-2017
</metadata>
<g transform="translate(0.000000,260.000000) scale(0.100000,-0.100000)"
fill="#000000" stroke="none">
<path d="M452 2580 c-214 -56 -371 -213 -432 -431 -19 -70 -20 -100 -19 -848
0 -734 1 -780 20 -850 52 -202 204 -361 404 -424 70 -22 73 -22 880 -22 l810
0 66 23 c65 22 161 76 211 117 39 32 116 132 143 185 13 26 34 81 45 122 19
70 20 99 20 854 -1 760 -1 782 -22 850 -31 104 -94 215 -153 267 -11 10 -33
30 -48 43 -47 42 -150 93 -228 113 -70 19 -115 20 -849 20 -730 0 -779 -1
-848 -19z"/>
</g>
</svg>
